<svg width="38" height="42" viewBox="0 0 38 42" fill="none" xmlns="http://www.w3.org/2000/svg">
<path d="M5.61963 23.1214L3.5363 23.1006V23.1214H5.61963ZM5.6613 18.8714L7.74463 18.8923V18.8714H5.6613ZM31.9946 23.1214L29.9113 23.1006V23.1214H31.9946ZM32.0363 19.0798L34.1196 19.1006V19.0798H32.0363ZM14.8488 36.1839C13.953 35.4756 12.6405 35.6214 11.9113 36.5173C11.203 37.4131 11.3488 38.7256 12.2447 39.4548L14.8488 36.1839ZM25.2654 39.4339C26.1613 38.7256 26.3071 37.4131 25.5988 36.4964C24.8904 35.6006 23.5779 35.4548 22.6613 36.1631L25.2654 39.4339ZM0.140486 8.37146C-0.276181 9.45479 0.265486 10.6423 1.34882 11.059C2.43215 11.4756 3.61963 10.934 4.0363 9.85063L0.140486 8.37146ZM8.9738 3.89227C9.9738 3.32977 10.328 2.05894 9.76546 1.05894C9.20296 0.0589373 7.93213 -0.295209 6.93213 0.267291L8.9738 3.89227ZM30.5571 0.288125C29.5571 -0.295208 28.2863 0.0381248 27.7029 1.03812C27.1196 2.03812 27.4529 3.30894 28.4529 3.89227L30.5571 0.288125ZM33.4738 9.80896C33.8696 10.8923 35.0779 11.4339 36.1404 11.0381C37.2238 10.6423 37.7654 9.43396 37.3696 8.37146L33.4738 9.80896ZM5.05715 31.3298C6.39049 29.4131 7.70296 26.5798 7.70296 23.1214H3.5363C3.5363 25.5173 2.61965 27.5381 1.64049 28.9548L5.05715 31.3298ZM7.70296 23.1423L7.74463 18.8923L3.57796 18.8506L3.5363 23.1006L7.70296 23.1423ZM35.9113 29.0173C34.9738 27.6006 34.0779 25.5589 34.0779 23.1214H29.9113C29.9113 26.5798 31.1821 29.4339 32.4529 31.3298L35.9113 29.0173ZM34.0779 23.1423L34.1196 19.1006L29.9529 19.0589L29.9113 23.1006L34.0779 23.1423ZM34.1196 19.0798C34.1196 10.1006 27.4113 2.49646 18.7446 2.49646V6.66312C24.7654 6.66312 29.9529 12.0381 29.9529 19.0798H34.1196ZM33.3904 34.2256C34.9946 34.2256 35.8904 33.0173 36.2238 32.1839C36.5571 31.3298 36.6404 30.0798 35.9321 29.0173L32.4738 31.3298C32.3488 31.1423 32.3279 30.9756 32.3279 30.8923C32.3279 30.8089 32.3279 30.7256 32.3696 30.6631C32.3904 30.6006 32.4529 30.4756 32.5988 30.3506C32.7654 30.2048 33.0571 30.0589 33.4113 30.0589V34.2256H33.3904ZM7.74463 18.8714C7.74463 11.9548 12.8488 6.66312 18.7654 6.66312V2.49646C10.2238 2.49646 3.57796 9.99646 3.57796 18.8714H7.74463ZM4.11963 30.0589C4.49463 30.0589 4.78632 30.2048 4.95299 30.3506C5.09882 30.4756 5.16132 30.6006 5.18215 30.6631C5.20299 30.7256 5.2238 30.7881 5.20297 30.8714C5.20297 30.9548 5.1613 31.1214 5.0363 31.3089L1.61963 28.9339C0.869631 29.9964 0.952986 31.2673 1.28632 32.1214C1.59882 32.9548 2.49463 34.2048 4.11963 34.2048V30.0589ZM33.3904 30.0589H4.11963V34.2256H33.3904V30.0589ZM18.7654 37.4964C17.2238 37.4964 15.8696 36.9756 14.8488 36.1839L12.2655 39.4548C14.0155 40.8506 16.3071 41.6839 18.7654 41.6839V37.4964ZM22.6613 36.1839C21.6613 36.9756 20.2863 37.4964 18.7446 37.4964V41.6631C21.2029 41.6631 23.4946 40.8298 25.2446 39.4339L22.6613 36.1839ZM4.0363 9.85063C5.01547 7.24646 6.76548 5.14229 8.99465 3.87146L6.93213 0.246437C3.7863 2.0381 1.43215 4.95477 0.140486 8.35061L4.0363 9.85063ZM28.4738 3.89227C30.7654 5.2256 32.5571 7.30896 33.4738 9.80896L37.3904 8.37146C36.1196 4.91313 33.6613 2.10063 30.5779 0.288125L28.4738 3.89227Z" fill="white"/>
</svg>
